Coordinates
version=1
nRows=11
nColumns=63
inDegrees=yes

Units are S.I. units (second, meters, Newtons, ...)
If the header above contains a line with 'inDegrees', this indicates whether rotational values are in degrees (yes) or radians (no).

endheader
time	pelvis_tilt	pelvis_list	pelvis_rotation	pelvis_tx	pelvis_ty	pelvis_tz	hip_flexion_r	hip_adduction_r	hip_rotation_r	knee_angle_r	knee_angle_r_beta	ankle_angle_r	subtalar_angle_r	mtp_angle_r	hip_flexion_l	hip_adduction_l	hip_rotation_l	knee_angle_l	knee_angle_l_beta	ankle_angle_l	subtalar_angle_l	mtp_angle_l	L5_S1_Flex_Ext	L5_S1_Lat_Bending	L5_S1_axial_rotation	L4_L5_Flex_Ext	L4_L5_Lat_Bending	L4_L5_axial_rotation	L3_L4_Flex_Ext	L3_L4_Lat_Bending	L3_L4_axial_rotation	L2_L3_Flex_Ext	L2_L3_Lat_Bending	L2_L3_axial_rotation	L1_L2_Flex_Ext	L1_L2_Lat_Bending	L1_L2_axial_rotation	L1_T12_Flex_Ext	L1_T12_Lat_Bending	L1_T12_axial_rotation	Abs_r3	Abs_r2	Abs_r1	Abs_t1	Abs_t2	neck_flexion	neck_bending	neck_rotation	arm_flex_r	arm_add_r	arm_rot_r	elbow_flex_r	pro_sup_r	wrist_flex_r	wrist_dev_r	arm_flex_l	arm_add_l	arm_rot_l	elbow_flex_l	pro_sup_l	wrist_flex_l	wrist_dev_l
0.700000	0.173296	-1.115612	118.464902	0.315031	0.551548	0.962233	2.869178	-5.344513	-21.235052	12.094243	0.211084	34.964825	17.113774	0.000000	3.376819	4.497964	-4.384792	8.634139	0.150694	28.285652	12.473092	0.000000	0.062296	-0.566279	-1.496427	0.115690	-0.753151	-1.589953	0.102347	-1.376851	-1.589953	0.071198	-1.376851	-1.309373	0.057848	-1.154756	-1.215847	0.035596	-0.877166	-1.122320	0.444976	-6.405861	-8.322676	0.000000	0.000000	19.911257	4.694484	-11.252388	6.771343	-19.965928	-39.796597	57.251298	46.099197	5.887848	6.603852	1.778935	-24.507407	87.771684	11.367080	44.626073	-1.478232	-12.906943
0.720000	0.219804	-0.916491	118.836340	0.314542	0.552316	0.962293	2.656178	-5.206645	-21.474670	12.092459	0.211053	34.965718	17.017514	0.000000	3.178749	4.358330	-4.429712	8.531451	0.148902	28.331349	12.981062	0.000000	0.072701	-0.560890	-1.579992	0.135012	-0.745984	-1.678742	0.119440	-1.363748	-1.678742	0.083089	-1.363748	-1.382493	0.067510	-1.143767	-1.283744	0.041541	-0.868818	-1.184994	0.519293	-6.344898	-8.787443	0.000000	0.000000	19.012808	4.494719	-11.878490	6.855960	-19.187796	-42.214791	60.441414	43.772867	11.280677	7.142065	1.875288	-24.104317	95.336434	9.769294	36.424813	0.446579	-14.105585
0.740000	0.239689	-0.755465	119.127710	0.314017	0.552819	0.962369	2.496719	-5.137596	-21.690758	12.163322	0.212290	34.995980	16.947777	0.000000	3.011793	4.283344	-4.403378	8.436134	0.147238	28.391556	13.312500	0.000000	0.082240	-0.549607	-1.639523	0.152728	-0.730977	-1.741994	0.135113	-1.336314	-1.741994	0.093992	-1.336314	-1.434583	0.076368	-1.120758	-1.332113	0.046992	-0.851341	-1.229643	0.587434	-6.217261	-9.118538	0.000000	0.000000	18.276913	4.140792	-12.249902	6.610176	-18.424666	-44.295146	64.678004	42.889279	17.646345	7.047284	2.143087	-23.533253	104.141538	8.244644	28.595067	1.740925	-15.132026
0.760000	0.240461	-0.679040	119.311142	0.313498	0.552987	0.962350	2.437882	-5.142046	-21.833844	12.291284	0.214523	35.064283	16.894703	0.000000	2.918167	4.280217	-4.358802	8.352105	0.145772	28.461321	13.493342	0.000000	0.093877	-0.534141	-1.637203	0.174338	-0.710408	-1.739528	0.154230	-1.298711	-1.739528	0.107291	-1.298711	-1.432552	0.087174	-1.089221	-1.330227	0.053641	-0.827385	-1.227902	0.670551	-6.042315	-9.105631	0.000000	0.000000	17.821976	3.608656	-12.511053	5.915665	-17.782610	-46.374696	70.342369	43.404186	24.575847	6.605935	2.682492	-22.785904	113.922781	6.793678	21.343311	2.418965	-15.992388
0.780000	0.220247	-0.641637	119.380902	0.313036	0.552958	0.962374	2.443570	-5.199497	-21.905753	12.464087	0.217539	35.152930	16.878029	0.000000	2.864694	4.326014	-4.330801	8.293631	0.144751	28.520143	13.545117	0.000000	0.102828	-0.515890	-1.597268	0.190961	-0.686133	-1.697097	0.168936	-1.254334	-1.697097	0.117522	-1.254334	-1.397609	0.095486	-1.052002	-1.297780	0.058756	-0.799113	-1.197951	0.734488	-5.835847	-8.883523	0.000000	0.000000	17.582818	2.996250	-12.678656	5.030892	-17.403980	-47.882319	77.160535	45.121714	31.568281	5.589685	3.442989	-21.909978	123.678643	5.466069	14.912139	2.650405	-16.791488
0.800000	0.163614	-0.606520	119.337200	0.312736	0.552872	0.962542	2.475721	-5.299127	-21.882469	12.662529	0.221003	35.242756	16.884635	0.000000	2.818594	4.413000	-4.332556	8.269556	0.144331	28.537938	13.466624	0.000000	0.105697	-0.496533	-1.550704	0.196290	-0.660389	-1.647623	0.173650	-1.207271	-1.647623	0.120801	-1.207271	-1.356866	0.098150	-1.012530	-1.259947	0.060395	-0.769130	-1.163028	0.754984	-5.616883	-8.624550	0.000000	0.000000	17.476870	2.405857	-12.592123	4.283329	-17.316830	-48.258119	84.796259	47.841494	38.279763	4.011131	4.305070	-20.964328	132.630254	4.282555	9.465174	2.542316	-17.542437
0.820000	0.065877	-0.543508	119.184213	0.312676	0.552837	0.962936	2.506024	-5.426926	-21.763379	12.875284	0.224716	35.315652	16.910817	0.000000	2.760085	4.522708	-4.425651	8.296494	0.144801	28.508024	13.327590	0.000000	0.099602	-0.476167	-1.518173	0.184971	-0.633302	-1.613059	0.163636	-1.157752	-1.613059	0.113835	-1.157752	-1.328401	0.092490	-0.971000	-1.233515	0.056913	-0.737583	-1.138630	0.711447	-5.386497	-8.443621	0.000000	0.000000	17.438884	1.891065	-12.136962	3.912664	-17.485149	-47.273289	92.926417	51.386568	44.629295	1.991865	5.175892	-20.001485	140.043778	3.292777	5.085971	2.197757	-18.218466
0.840000	-0.055695	-0.442048	118.928290	0.312855	0.552912	0.963605	2.531367	-5.562366	-21.550378	13.094806	0.228547	35.344984	16.959014	0.000000	2.687689	4.633888	-4.600604	8.370904	0.146100	28.419095	13.129279	0.000000	0.084115	-0.454392	-1.504097	0.156211	-0.604341	-1.598103	0.138193	-1.104808	-1.598103	0.096136	-1.104808	-1.316085	0.078110	-0.926596	-1.222079	0.048064	-0.703853	-1.128073	0.600828	-5.140171	-8.365338	0.000000	0.000000	17.426931	1.442853	-11.401713	3.986766	-17.904904	-45.088261	101.273419	55.477536	50.560040	-0.311576	6.000826	-19.055773	145.459134	2.520308	1.869130	1.661088	-18.792497
0.860000	-0.186203	-0.331980	118.592251	0.313227	0.553065	0.964420	2.566194	-5.698391	-21.263340	13.304185	0.232202	35.324548	17.012338	0.000000	2.624662	4.740582	-4.871665	8.483106	0.148058	28.282159	12.925401	0.000000	0.063324	-0.433502	-1.485894	0.117599	-0.576557	-1.578762	0.104035	-1.054016	-1.578762	0.072373	-1.054016	-1.300157	0.058803	-0.883997	-1.207289	0.036183	-0.671494	-1.114420	0.452316	-4.903858	-8.264095	0.000000	0.000000	17.480199	1.078878	-10.584764	4.313869	-18.521156	-42.370102	109.735348	59.959232	55.891227	-2.689781	6.769027	-18.146327	148.927292	1.979811	-0.054916	0.692224	-19.268536
0.880000	-0.320335	-0.275456	118.185038	0.313794	0.553190	0.965201	2.657967	-5.850732	-20.915401	13.499557	0.235612	35.268395	17.070108	0.000000	2.619658	4.855239	-5.282770	8.617389	0.150402	28.117323	12.798158	0.000000	0.043300	-0.418048	-1.422849	0.080413	-0.556003	-1.511777	0.071138	-1.016441	-1.511777	0.049488	-1.016441	-1.244993	0.040209	-0.852483	-1.156065	0.024742	-0.647556	-1.067137	0.309289	-4.729039	-7.913459	0.000000	0.000000	17.654988	0.704374	-9.989860	4.576388	-19.268551	-39.862858	118.322493	64.609574	60.267018	-4.604119	7.523213	-17.273213	150.638807	1.688234	-0.553630	-0.782681	-19.666686
0.900000	-0.457949	-0.263542	117.717327	0.314554	0.553276	0.965947	2.789944	-6.012281	-20.517986	13.673492	0.238647	35.166261	17.115320	0.000000	2.664615	4.969763	-5.848312	8.770146	0.153068	27.948001	12.797490	0.000000	0.024828	-0.409738	-1.319803	0.046108	-0.544951	-1.402291	0.040790	-0.996236	-1.402291	0.028376	-0.996236	-1.154828	0.023055	-0.835537	-1.072340	0.014187	-0.634684	-0.989852	0.177343	-4.635034	-7.340348	0.000000	0.000000	17.897029	0.375074	-9.631462	4.759673	-20.151594	-37.484214	126.601148	69.010662	63.428359	-6.240356	8.213596	-16.486204	150.631989	1.658313	0.463320	-2.873399	-19.981425
